# 3ds Max Wavefront OBJ Exporter v0.97b - (c)2007 guruware
# File Created: 05.12.2015 23:21:45

mtllib 7.mtl

#
# object ascii
#

v  15.9498 5.0360 -8.6374
v  15.9498 -4.9640 -8.6374
v  15.9498 5.0360 -14.4408
v  15.9498 -4.9640 -14.4408
v  0.3492 5.0360 25.5592
v  0.3492 -4.9640 25.5592
v  -9.6976 5.0360 25.5592
v  -9.6976 -4.9640 25.5592
v  5.0606 5.0360 -6.8589
v  5.0606 -4.9640 -6.8589
v  -14.1906 5.0360 -6.8589
v  -14.1906 -4.9640 -6.8589
v  -14.1906 5.0360 -14.4408
v  -14.1906 -4.9640 -14.4408
# 14 vertices

vn 0.9772 0.0000 0.2124
vn 1.0000 0.0000 -0.0000
vn 0.9098 0.0000 0.4151
vn 0.0000 0.0000 1.0000
vn -0.9101 0.0000 -0.4143
vn -1.0000 0.0000 -0.0000
vn 0.0000 0.0000 -1.0000
vn 0.0000 1.0000 -0.0000
vn 0.0000 -1.0000 -0.0000
# 9 vertex normals

g ascii
usemtl wire_227153153
s 1
f 1//1 2//1 3//2 
f 3//2 2//1 4//2 
f 5//3 6//3 1//1 
f 1//1 6//3 2//1 
s 2
f 7//4 8//4 5//4 
f 5//4 8//4 6//4 
s 1
f 9//5 10//5 7//5 
f 7//5 10//5 8//5 
s 2
f 11//4 12//4 9//4 
f 9//4 12//4 10//4 
s 1
f 13//6 14//6 11//6 
f 11//6 14//6 12//6 
s 2
f 3//7 4//7 13//7 
f 13//7 4//7 14//7 
s 4
f 5//8 1//8 9//8 
f 7//8 5//8 9//8 
f 1//8 3//8 9//8 
f 9//8 3//8 13//8 
f 11//8 9//8 13//8 
f 12//9 14//9 10//9 
f 10//9 14//9 4//9 
f 2//9 10//9 4//9 
f 2//9 6//9 10//9 
f 10//9 6//9 8//9 
# 0 polygons - 24 triangles

