# 3ds Max Wavefront OBJ Exporter v0.97b - (c)2007 guruware
# File Created: 21.11.2015 13:32:11

mtllib Plate.mtl

#
# object ig_ManifoldSolidBRep105_DC_Shell
#

v  0.0000 -3.0000 -0.1000
v  0.0000 0.0000 -0.0000
v  0.0000 -3.0000 -0.0000
v  0.0000 0.0000 -0.1000
v  6.0000 0.0000 -0.1000
v  6.0000 0.0000 -0.0000
v  6.0000 -3.0000 -0.1000
v  6.0000 -3.0000 -0.0000
# 8 vertices

vn 1.0000 0.0000 -0.0000
vn 0.0000 -1.0000 -0.0000
vn -1.0000 0.0000 -0.0000
vn -1.0000 0.0000 0.0000
vn 0.0000 1.0000 -0.0000
vn -0.0000 1.0000 -0.0000
vn 0.0000 1.0000 0.0000
vn -0.0000 0.0000 1.0000
vn 0.0000 0.0000 1.0000
vn 0.0000 0.0000 -1.0000
# 10 vertex normals

vt 1.8972 -1.8972 0.0000
vt -0.0632 -0.0632 0.0000
vt 1.8339 -1.9604 0.0000
vt -0.0000 0.0000 0.0000
vt -3.7943 3.7943 0.0000
vt -3.8576 3.7311 0.0000
vt 0.0000 0.0000 0.0000
vt 0.0632 -0.0632 0.0000
vt -1.8972 -1.8972 0.0000
vt -1.8339 -1.9604 0.0000
vt 3.8576 3.7311 0.0000
vt 0.0000 -0.0000 0.0000
vt 3.7943 3.7943 0.0000
vt -0.0000 -0.0000 0.0000
vt 5.6915 1.8972 0.0000
vt -1.8972 1.8972 0.0000
vt 1.8972 5.6915 0.0000
# 17 texture coords

g ig_ManifoldSolidBRep105_DC_Shell
usemtl wire_202209238
s 1
f 1/1/1 2/2/1 3/3/1 
f 2/2/1 1/1/1 4/4/1 
f 2/2/2 5/5/2 6/6/2 
f 5/5/2 2/2/2 4/7/2 
f 6/8/3 7/9/3 8/10/4 
f 7/9/3 6/8/3 5/7/3 
f 8/11/5 1/12/6 3/8/7 
f 1/12/6 8/11/5 7/13/5 
f 1/1/8 5/13/9 4/14/9 
f 5/13/9 1/1/8 7/15/9 
f 3/16/10 6/13/10 8/17/10 
f 6/13/10 3/16/10 2/12/10 
# 0 polygons - 12 triangles

